<?xml version="1.0" encoding="UTF-8" standalone="no"?>
<!DOCTYPE svg PUBLIC "-//W3C//DTD SVG 1.1//EN"
 "http://www.w3.org/Graphics/SVG/1.1/DTD/svg11.dtd">
<!-- Generated by graphviz version 14.1.3 (20260303.0454)
 -->
<!-- Title: CICD_Detailed_Company_Paths Pages: 1 -->
<svg width="639pt" height="590pt"
 viewBox="0.00 0.00 639.00 590.00" xmlns="http://www.w3.org/2000/svg" xmlns:xlink="http://www.w3.org/1999/xlink">
<g id="graph0" class="graph" transform="scale(1 1) rotate(0) translate(20.16 570.24)">
<title>CICD_Detailed_Company_Paths</title>
<polygon fill="#f7f8fa" stroke="none" points="-20.16,20.16 -20.16,-570.24 618.6,-570.24 618.6,20.16 -20.16,20.16"/>
<!-- h1&#45;&gt;h2 -->
<!-- h1&#45;&gt;repo -->
<!-- h2&#45;&gt;repo_paths -->
<!-- repo&#45;&gt;repo_paths -->
<g id="edge2" class="edge">
<title>repo&#45;&gt;repo_paths</title>
<path fill="none" stroke="#7b8798" stroke-width="1.8" d="M114.28,-472C114.28,-472 123.05,-472 123.05,-472"/>
<polygon fill="#7b8798" stroke="#7b8798" stroke-width="1.8" points="123.05,-474.52 130.25,-472 123.05,-469.48 123.05,-474.52"/>
</g>
<!-- repo&#45;&gt;pipe -->
<!-- repo_paths&#45;&gt;pipe_paths -->
<!-- pipe&#45;&gt;pipe_paths -->
<g id="edge3" class="edge">
<title>pipe&#45;&gt;pipe_paths</title>
<path fill="none" stroke="#7b8798" stroke-width="1.8" d="M114.28,-357C114.28,-357 123.05,-357 123.05,-357"/>
<polygon fill="#7b8798" stroke="#7b8798" stroke-width="1.8" points="123.05,-359.52 130.25,-357 123.05,-354.48 123.05,-359.52"/>
</g>
<!-- pipe&#45;&gt;build -->
<!-- pipe_paths&#45;&gt;build_paths -->
<!-- build&#45;&gt;build_paths -->
<g id="edge4" class="edge">
<title>build&#45;&gt;build_paths</title>
<path fill="none" stroke="#7b8798" stroke-width="1.8" d="M114.28,-216C114.28,-216 123.05,-216 123.05,-216"/>
<polygon fill="#7b8798" stroke="#7b8798" stroke-width="1.8" points="123.05,-218.52 130.25,-216 123.05,-213.48 123.05,-218.52"/>
</g>
<!-- build&#45;&gt;artifact -->
<!-- build_paths&#45;&gt;artifact_paths -->
<!-- artifact&#45;&gt;artifact_paths -->
<g id="edge5" class="edge">
<title>artifact&#45;&gt;artifact_paths</title>
<path fill="none" stroke="#7b8798" stroke-width="1.8" d="M114.28,-64C114.28,-64 123.05,-64 123.05,-64"/>
<polygon fill="#7b8798" stroke="#7b8798" stroke-width="1.8" points="123.05,-66.52 130.25,-64 123.05,-61.48 123.05,-66.52"/>
</g>
<!-- h1 -->
<g id="node1" class="node">
<title>h1</title>
<text xml:space="preserve" text-anchor="middle" x="56.88" y="-538.38" font-family="PingFang SC" font-size="13.00" fill="#687386">基础设施</text>
</g>
<!-- h2 -->
<g id="node2" class="node">
<title>h2</title>
<text xml:space="preserve" text-anchor="middle" x="365.88" y="-538.38" font-family="PingFang SC" font-size="13.00" fill="#687386">代表公司的差异化路径</text>
</g>
<!-- repo -->
<g id="node3" class="node">
<title>repo</title>
<path fill="#e8f0ff" stroke="#4777d9" stroke-width="1.2" d="M101.76,-504.72C101.76,-504.72 12,-504.72 12,-504.72 6,-504.72 0,-498.72 0,-492.72 0,-492.72 0,-450.48 0,-450.48 0,-444.48 6,-438.48 12,-438.48 12,-438.48 101.76,-438.48 101.76,-438.48 107.76,-438.48 113.76,-444.48 113.76,-450.48 113.76,-450.48 113.76,-492.72 113.76,-492.72 113.76,-498.72 107.76,-504.72 101.76,-504.72"/>
<text xml:space="preserve" text-anchor="middle" x="56.88" y="-467.4" font-family="PingFang SC" font-size="14.00" fill="#234b9a">代码仓</text>
</g>
<!-- repo_paths -->
<g id="node4" class="node">
<title>repo_paths</title>
<path fill="#ffffff" stroke="#cbd2dc" stroke-width="1.2" d="M586.44,-510.48C586.44,-510.48 145.32,-510.48 145.32,-510.48 139.32,-510.48 133.32,-504.48 133.32,-498.48 133.32,-498.48 133.32,-444.72 133.32,-444.72 133.32,-438.72 139.32,-432.72 145.32,-432.72 145.32,-432.72 586.44,-432.72 586.44,-432.72 592.44,-432.72 598.44,-438.72 598.44,-444.72 598.44,-444.72 598.44,-498.48 598.44,-498.48 598.44,-504.48 592.44,-510.48 586.44,-510.48"/>
<text xml:space="preserve" text-anchor="start" x="147.72" y="-475.14" font-family="PingFang SC" font-size="11.80" fill="#172033">GitHub &#160;&#160;Issue / 评论 → 临时 Actions 环境 → Branch / Draft PR</text>
<text xml:space="preserve" text-anchor="start" x="147.72" y="-460.98" font-family="PingFang SC" font-size="11.80" fill="#172033">GitLab &#160;&#160;&#160;Issue / MR / Event → Custom Flow / Runner → MR + CI Log</text>
</g>
<!-- pipe -->
<g id="node5" class="node">
<title>pipe</title>
<path fill="#e9f7f2" stroke="#23956f" stroke-width="1.2" d="M101.76,-389.64C101.76,-389.64 12,-389.64 12,-389.64 6,-389.64 0,-383.64 0,-377.64 0,-377.64 0,-335.4 0,-335.4 0,-329.4 6,-323.4 12,-323.4 12,-323.4 101.76,-323.4 101.76,-323.4 107.76,-323.4 113.76,-329.4 113.76,-335.4 113.76,-335.4 113.76,-377.64 113.76,-377.64 113.76,-383.64 107.76,-389.64 101.76,-389.64"/>
<text xml:space="preserve" text-anchor="middle" x="56.88" y="-352.32" font-family="PingFang SC" font-size="14.00" fill="#176a51">流水线</text>
</g>
<!-- pipe_paths -->
<g id="node6" class="node">
<title>pipe_paths</title>
<path fill="#ffffff" stroke="#cbd2dc" stroke-width="1.2" d="M586.44,-408.72C586.44,-408.72 145.32,-408.72 145.32,-408.72 139.32,-408.72 133.32,-402.72 133.32,-396.72 133.32,-396.72 133.32,-316.32 133.32,-316.32 133.32,-310.32 139.32,-304.32 145.32,-304.32 145.32,-304.32 586.44,-304.32 586.44,-304.32 592.44,-304.32 598.44,-310.32 598.44,-316.32 598.44,-316.32 598.44,-396.72 598.44,-396.72 598.44,-402.72 592.44,-408.72 586.44,-408.72"/>
<text xml:space="preserve" text-anchor="start" x="147.72" y="-366.96" font-family="PingFang SC" font-size="11.60" fill="#172033">GitHub &#160;&#160;&#160;&#160;&#160;Markdown 意图 → Actions YAML → Runner / Policy</text>
<text xml:space="preserve" text-anchor="start" x="147.72" y="-353.04" font-family="PingFang SC" font-size="11.60" fill="#172033">Buildkite &#160;&#160;Build / Log / Trigger MCP → Agent Step → 分析或触发</text>
<text xml:space="preserve" text-anchor="start" x="147.72" y="-339.12" font-family="PingFang SC" font-size="11.60" fill="#172033">Harness &#160;&#160;&#160;Autofix / Worker Agent → 受控凭据与网络 → 修复 / 复验</text>
</g>
<!-- build -->
<g id="node7" class="node">
<title>build</title>
<path fill="#fff2e8" stroke="#e27b31" stroke-width="1.2" d="M101.76,-249.36C101.76,-249.36 12,-249.36 12,-249.36 6,-249.36 0,-243.36 0,-237.36 0,-237.36 0,-195.12 0,-195.12 0,-189.12 6,-183.12 12,-183.12 12,-183.12 101.76,-183.12 101.76,-183.12 107.76,-183.12 113.76,-189.12 113.76,-195.12 113.76,-195.12 113.76,-237.36 113.76,-237.36 113.76,-243.36 107.76,-249.36 101.76,-249.36"/>
<text xml:space="preserve" text-anchor="middle" x="56.88" y="-220.44" font-family="PingFang SC" font-size="14.00" fill="#9b4b15">构建系统</text>
<text xml:space="preserve" text-anchor="middle" x="56.88" y="-203.64" font-family="PingFang SC" font-size="14.00" fill="#9b4b15">与执行资源</text>
</g>
<!-- build_paths -->
<g id="node8" class="node">
<title>build_paths</title>
<path fill="#ffffff" stroke="#cbd2dc" stroke-width="1.2" d="M586.44,-280.32C586.44,-280.32 145.32,-280.32 145.32,-280.32 139.32,-280.32 133.32,-274.32 133.32,-268.32 133.32,-268.32 133.32,-164.16 133.32,-164.16 133.32,-158.16 139.32,-152.16 145.32,-152.16 145.32,-152.16 586.44,-152.16 586.44,-152.16 592.44,-152.16 598.44,-158.16 598.44,-164.16 598.44,-164.16 598.44,-268.32 598.44,-268.32 598.44,-274.32 592.44,-280.32 586.44,-280.32"/>
<text xml:space="preserve" text-anchor="start" x="147.72" y="-239.76" font-family="PingFang SC" font-size="11.20" fill="#172033">CircleCI &#160;&#160;预热 Snapshot → Sidecar / Microbuild → 增量反馈</text>
<text xml:space="preserve" text-anchor="start" x="147.72" y="-226.32" font-family="PingFang SC" font-size="11.20" fill="#172033">Nx &#160;&#160;&#160;&#160;&#160;&#160;&#160;&#160;&#160;&#160;Graph / Affected / 历史耗时 → Cache / 动态 Worker</text>
<text xml:space="preserve" text-anchor="start" x="147.72" y="-212.88" font-family="PingFang SC" font-size="11.20" fill="#172033"> &#160;&#160;&#160;&#160;&#160;&#160;&#160;&#160;&#160;&#160;&#160;&#160;&#160;→ Task 复验 / Self&#45;Healing</text>
<text xml:space="preserve" text-anchor="start" x="147.72" y="-199.44" font-family="PingFang SC" font-size="11.20" fill="#172033">Bazel &#160;&#160;&#160;&#160;&#160;&#160;Hermetic Action Graph → RBE / Remote Cache</text>
<text xml:space="preserve" text-anchor="start" x="147.72" y="-186" font-family="PingFang SC" font-size="11.20" fill="#172033"> &#160;&#160;&#160;&#160;&#160;&#160;&#160;&#160;&#160;&#160;&#160;&#160;&#160;→ 确定性结果复用（既有底座升值）</text>
</g>
<!-- artifact -->
<g id="node9" class="node">
<title>artifact</title>
<path fill="#f2ecff" stroke="#8458c7" stroke-width="1.2" d="M101.76,-97.2C101.76,-97.2 12,-97.2 12,-97.2 6,-97.2 0,-91.2 0,-85.2 0,-85.2 0,-42.96 0,-42.96 0,-36.96 6,-30.96 12,-30.96 12,-30.96 101.76,-30.96 101.76,-30.96 107.76,-30.96 113.76,-36.96 113.76,-42.96 113.76,-42.96 113.76,-85.2 113.76,-85.2 113.76,-91.2 107.76,-97.2 101.76,-97.2"/>
<text xml:space="preserve" text-anchor="middle" x="56.88" y="-68.28" font-family="PingFang SC" font-size="14.00" fill="#593694">制品仓及相邻</text>
<text xml:space="preserve" text-anchor="middle" x="56.88" y="-51.48" font-family="PingFang SC" font-size="14.00" fill="#593694">供应链平台</text>
</g>
<!-- artifact_paths -->
<g id="node10" class="node">
<title>artifact_paths</title>
<path fill="#ffffff" stroke="#cbd2dc" stroke-width="1.2" d="M586.44,-128.16C586.44,-128.16 145.32,-128.16 145.32,-128.16 139.32,-128.16 133.32,-122.16 133.32,-116.16 133.32,-116.16 133.32,-12 133.32,-12 133.32,-6 139.32,0 145.32,0 145.32,0 586.44,0 586.44,0 592.44,0 598.44,-6 598.44,-12 598.44,-12 598.44,-116.16 598.44,-116.16 598.44,-122.16 592.44,-128.16 586.44,-128.16"/>
<text xml:space="preserve" text-anchor="start" x="147.72" y="-87.18" font-family="PingFang SC" font-size="11.00" fill="#172033">Sonatype &#160;&#160;&#160;&#160;依赖请求 → 版本 / 漏洞 / License / 维护情报 → 推荐版本</text>
<text xml:space="preserve" text-anchor="start" x="147.72" y="-73.98" font-family="PingFang SC" font-size="11.00" fill="#172033">Cloudsmith &#160;&#160;MCP 查询版本 / 漏洞 → 非破坏性制品操作</text>
<text xml:space="preserve" text-anchor="start" x="147.72" y="-60.78" font-family="PingFang SC" font-size="11.00" fill="#172033"> &#160;&#160;&#160;&#160;&#160;&#160;&#160;&#160;&#160;&#160;&#160;&#160;&#160;&#160;&#160;&#160;→ Policy 激活仍由人工控制</text>
<text xml:space="preserve" text-anchor="start" x="147.72" y="-47.58" font-family="PingFang SC" font-size="11.00" fill="#172033">JFrog &#160;&#160;&#160;&#160;&#160;&#160;&#160;&#160;Repository / Xray / SBOM / Evidence / Release</text>
<text xml:space="preserve" text-anchor="start" x="147.72" y="-34.38" font-family="PingFang SC" font-size="11.00" fill="#172033"> &#160;&#160;&#160;&#160;&#160;&#160;&#160;&#160;&#160;&#160;&#160;&#160;&#160;&#160;&#160;&#160;→ Agent Package 分发与治理操作（Beta）</text>
</g>
</g>
</svg>
